<svg width="233" height="31" viewBox="0 0 233 31" fill="none" xmlns="http://www.w3.org/2000/svg">
<g clip-path="url(#clip0_2584_368)">
<path d="M0.25 0.221924H8.76158V12.016H18.6883V0.221924H27.1999V30.9999H18.6883V18.8275H8.76158V30.9999H0.25V0.221924ZM40.4635 25.7861L38.7316 30.9999H30.8537L42.0054 0.221924H52.0587L62.9993 30.9999H53.9596L52.2701 25.7861H40.4635ZM46.4197 7.79028L42.4068 19.7945H50.3692L46.4197 7.79028ZM66.6108 0.221924H80.487C84.4016 0.221924 87.3864 1.25206 89.4422 3.31233C91.2304 5.12034 92.1246 7.545 92.1246 10.5864C92.1246 13.908 90.9979 16.4518 88.7452 18.2178C86.7881 19.7595 84.1761 20.5304 80.9095 20.5304H75.1225V30.9999H66.6108V0.221924ZM79.7479 14.3705C82.55 14.3705 83.9509 13.0671 83.9509 10.4602C83.9509 7.88138 82.5638 6.59195 79.79 6.59195H75.1225V14.3705H79.7479ZM96.5176 0.221924H110.394C114.308 0.221924 117.293 1.25206 119.349 3.31233C121.137 5.12034 122.031 7.545 122.031 10.5864C122.031 13.908 120.905 16.4518 118.652 18.2178C116.695 19.7595 114.083 20.5304 110.816 20.5304H105.029V30.9999H96.5176V0.221924ZM109.655 14.3705C112.457 14.3705 113.858 13.0671 113.858 10.4602C113.858 7.88138 112.471 6.59195 109.697 6.59195H105.029V14.3705H109.655ZM126.424 0.221924H138.569C143.821 0.221924 147.855 1.75662 150.671 4.82602C153.135 7.50295 154.367 11.0489 154.367 15.4638C154.367 20.6215 152.755 24.5878 149.53 27.3629C146.714 29.7875 142.99 30.9999 138.357 30.9999H126.424V0.221924ZM138.695 24.3776C141.075 24.3776 142.849 23.5297 144.018 21.8338C145.031 20.3481 145.538 18.2668 145.538 15.5899C145.538 12.5345 144.87 10.264 143.532 8.77837C142.377 7.48895 140.737 6.84423 138.611 6.84423H134.936V24.3776H138.695ZM160.091 0.221924H168.602V30.9999H160.091V0.221924ZM175.847 0.221924H185.097L195.193 18.2598V0.221924H202.839V30.9999H194.158L183.492 12.016V30.9999H175.847V0.221924ZM209.682 0.221924H232.302V6.88628H218.024V12.1421H228.416V18.5121H218.024V24.3356H232.957V30.9999H209.682V0.221924Z" fill="url(#paint0_linear_2584_368)"/>
</g>
<defs>
<linearGradient id="paint0_linear_2584_368" x1="-0.587523" y1="42.3095" x2="233.717" y2="6.29134" gradientUnits="userSpaceOnUse">
<stop stop-color="#E0E2E5"/>
<stop offset="0.10935" stop-color="#B2B9C0"/>
<stop offset="0.246288" stop-color="#7D8389"/>
<stop offset="0.370793" stop-color="#B2B9C0"/>
<stop offset="0.512607" stop-color="#E0E2E5"/>
<stop offset="0.660638" stop-color="#B2B9C0"/>
<stop offset="0.812182" stop-color="#7D8389"/>
<stop offset="0.952477" stop-color="#B2B9C0"/>
</linearGradient>
<clipPath id="clip0_2584_368">
<rect width="233" height="31" fill="white"/>
</clipPath>
</defs>
</svg>
