<svg width="808" height="108" viewBox="0 0 808 108" fill="none" xmlns="http://www.w3.org/2000/svg">
<path d="M0.865234 0.773438H30.3818V41.8623H64.8057V0.773438H94.3223V108H64.8057V65.5928H30.3818V108H0.865234V0.773438ZM140.318 89.8359L134.312 108H106.993L145.665 0.773438H180.528L218.468 108H187.12L181.261 89.8359H140.318ZM160.973 27.1406L147.057 68.9619H174.669L160.973 27.1406ZM230.992 0.773438H279.112C292.687 0.773438 303.038 4.3623 310.167 11.54C316.368 17.8389 319.469 26.2861 319.469 36.8818C319.469 48.4541 315.562 57.3164 307.75 63.4688C300.963 68.8398 291.905 71.5254 280.577 71.5254H260.509V108H230.992V0.773438ZM276.549 50.0654C286.266 50.0654 291.124 45.5244 291.124 36.4424C291.124 27.458 286.314 22.9658 276.695 22.9658H260.509V50.0654H276.549ZM334.703 0.773438H382.823C396.397 0.773438 406.749 4.3623 413.878 11.54C420.079 17.8389 423.18 26.2861 423.18 36.8818C423.18 48.4541 419.273 57.3164 411.461 63.4688C404.674 68.8398 395.616 71.5254 384.288 71.5254H364.22V108H334.703V0.773438ZM380.26 50.0654C389.977 50.0654 394.835 45.5244 394.835 36.4424C394.835 27.458 390.025 22.9658 380.406 22.9658H364.22V50.0654H380.26ZM438.414 0.773438H480.528C498.741 0.773438 512.73 6.12012 522.496 16.8135C531.041 26.1396 535.313 38.4932 535.313 53.874C535.313 71.8428 529.723 85.6611 518.541 95.3291C508.775 103.776 495.86 108 479.796 108H438.414V0.773438ZM480.968 84.9287C489.22 84.9287 495.372 81.9746 499.425 76.0664C502.94 70.8906 504.698 63.6396 504.698 54.3135C504.698 43.6689 502.379 35.7588 497.74 30.583C493.736 26.0908 488.048 23.8447 480.675 23.8447H467.931V84.9287H480.968ZM555.162 0.773438H584.679V108H555.162V0.773438ZM609.801 0.773438H641.881L676.891 63.6152V0.773438H703.404V108H673.302L636.314 41.8623V108H609.801V0.773438ZM727.135 0.773438H805.577V23.9912H756.065V42.3018H792.101V64.4941H756.065V84.7822H807.848V108H727.135V0.773438Z" fill="url(#paint0_linear_41_4)"/>
<defs>
<linearGradient id="paint0_linear_41_4" x1="-11" y1="43.5" x2="823" y2="43.5" gradientUnits="userSpaceOnUse">
<stop stop-color="#7D8389"/>
<stop offset="0.294569" stop-color="#4E5256"/>
<stop offset="0.517179" stop-color="#7D8389"/>
<stop offset="0.765978" stop-color="#4E5256"/>
<stop offset="1" stop-color="#7D8389"/>
</linearGradient>
</defs>
</svg>
