<svg width="14" height="14" viewBox="0 0 14 14" fill="none" xmlns="http://www.w3.org/2000/svg">
<path d="M12.8484 8.21376V12.5417H10.3336V8.50619C10.3336 7.51194 9.98264 6.81011 9.04687 6.81011C8.34505 6.81011 7.93565 7.278 7.7602 7.74588C7.70171 7.92133 7.70171 8.15528 7.70171 8.33073V12.5417H5.18685C5.18685 12.5417 5.24533 5.69889 5.18685 4.99707H7.70171V6.04981C8.05262 5.52344 8.63748 4.82162 9.98264 4.82162C11.6202 4.76313 12.8484 5.87435 12.8484 8.21376ZM2.55501 1.3125C1.67773 1.3125 1.15137 1.89735 1.15137 2.59918C1.15137 3.301 1.67773 3.88585 2.55501 3.88585C3.43229 3.88585 3.95866 3.301 3.95866 2.59918C3.95866 1.89735 3.43229 1.3125 2.55501 1.3125ZM1.32682 12.4832H3.84169V4.99707H1.32682V12.4832Z" fill="black"/>
</svg>
