<svg width="14" height="14" viewBox="0 0 14 14" fill="none" xmlns="http://www.w3.org/2000/svg">
<path d="M12.8489 8.21376V12.5417H10.334V8.50619C10.334 7.51194 9.98313 6.81011 9.04736 6.81011C8.34554 6.81011 7.93614 7.278 7.76069 7.74588C7.7022 7.92133 7.7022 8.15528 7.7022 8.33073V12.5417H5.18734C5.18734 12.5417 5.24582 5.69889 5.18734 4.99707H7.7022V6.04981C8.05311 5.52344 8.63796 4.82162 9.98312 4.82162C11.6207 4.76313 12.8489 5.87435 12.8489 8.21376ZM2.5555 1.3125C1.67822 1.3125 1.15186 1.89735 1.15186 2.59918C1.15186 3.301 1.67822 3.88585 2.5555 3.88585C3.43278 3.88585 3.95915 3.301 3.95915 2.59918C3.95915 1.89735 3.43278 1.3125 2.5555 1.3125ZM1.32731 12.4832H3.84218V4.99707H1.32731V12.4832Z" fill="white"/>
</svg>
