<svg width="131" height="131" viewBox="0 0 131 131" fill="none" xmlns="http://www.w3.org/2000/svg">
<path d="M70.6074 125.867H67.0654V120.937H62.9346V125.867H59.3926V113H62.9346V118.089H67.0654V113H70.6074V125.867Z" fill="url(#paint0_linear_2706_79)"/>
<path d="M55.2395 114.183L56.4998 112.264L59.6664 113.113L51.8537 124.34L47.8126 123.257L46.7453 109.65L50.3788 110.624L50.4938 112.911L55.2395 114.183ZM50.8983 120.809L53.8102 116.393L50.6096 115.536L50.8983 120.809Z" fill="url(#paint1_linear_2706_79)"/>
<path d="M39.5558 120.227L34.555 117.34C33.1443 116.526 32.2839 115.531 31.9737 114.358C31.7072 113.331 31.8918 112.267 32.5275 111.166C33.2219 109.964 34.1596 109.277 35.3406 109.106C36.3682 108.955 37.4706 109.22 38.6479 109.899L40.7334 111.103L42.9219 107.313L45.9894 109.084L39.5558 120.227ZM37.7789 112.371C36.7691 111.788 35.9918 111.969 35.4468 112.912C34.9078 113.846 35.1381 114.602 36.1377 115.179L37.8199 116.15L39.4458 113.334L37.7789 112.371Z" fill="url(#paint2_linear_2706_79)"/>
<path d="M26.2761 111.648L22.193 107.564C21.0412 106.413 20.4674 105.23 20.4715 104.016C20.4798 102.955 20.9335 101.975 21.8326 101.076C22.8145 100.094 23.898 99.6738 25.0829 99.8146C26.1146 99.9348 27.111 100.475 28.0722 101.437L29.7751 103.14L32.8701 100.045L35.3746 102.549L26.2761 111.648ZM26.5931 103.599C25.7686 102.775 24.971 102.748 24.2004 103.519C23.4381 104.281 23.465 105.07 24.2812 105.887L25.6547 107.26L27.9541 104.96L26.5931 103.599Z" fill="url(#paint3_linear_2706_79)"/>
<path d="M15.9671 100.441L13.4403 96.064C12.3475 94.1713 12.0638 92.3967 12.5891 90.7402C13.0456 89.2926 14.0731 88.1074 15.6715 87.1845C17.5389 86.1064 19.3104 85.8583 20.986 86.4403C22.4498 86.9483 23.6637 88.0371 24.6275 89.7065L27.1104 94.0071L15.9671 100.441ZM22.1596 90.969C21.6645 90.1115 20.9883 89.6493 20.1311 89.5826C19.3823 89.5278 18.5233 89.7802 17.5541 90.3398C16.4479 90.9785 15.765 91.6941 15.5054 92.4867C15.2788 93.1723 15.3867 93.8983 15.8291 94.6645L16.5938 95.9889L22.9418 92.3239L22.1596 90.969Z" fill="url(#paint4_linear_2706_79)"/>
<path d="M7.64925 82.8392L6.73251 79.4179L19.1613 76.0876L20.078 79.5089L7.64925 82.8392Z" fill="url(#paint5_linear_2706_79)"/>
<path d="M5.13281 70.6162L5.13281 66.7666L12.6738 62.5654H5.13281L5.13281 59.3838L18 59.3838V62.9961L10.0635 67.4346H18V70.6162H5.13281Z" fill="url(#paint6_linear_2706_79)"/>
<path d="M6.01348 54.2648L8.44977 45.1725L11.141 45.8936L9.60322 51.6325L11.7256 52.2012L12.8448 48.0243L15.4171 48.7136L14.298 52.8905L16.6496 53.5206L18.2578 47.5185L20.949 48.2396L18.4422 57.5951L6.01348 54.2648Z" fill="url(#paint7_linear_2706_79)"/>
<path d="M25.0257 28.3077L28.2947 25.0387L30.4326 27.1766L27.1636 30.4456L25.0257 28.3077Z" fill="url(#paint8_linear_2706_79)"/>
<path d="M48.2571 18.1328C50.0004 16.4889 51.2324 14.9971 51.9532 13.6575C52.5731 12.4844 52.7708 11.479 52.5463 10.6414C52.4235 10.183 52.207 9.86184 51.8969 9.67803C51.591 9.48703 51.2201 9.44992 50.7843 9.56669C50.3429 9.68498 50.0274 9.89993 49.8379 10.2115C49.6484 10.5232 49.551 10.986 49.5457 11.6001L46.3788 11.6662C46.3086 9.18575 47.5809 7.59522 50.1957 6.89459C51.7238 6.48513 53.008 6.5687 54.0481 7.14531C54.9519 7.6432 55.557 8.46378 55.8633 9.60704C56.2895 11.1974 55.9411 12.7951 54.8183 14.4002C54.3296 15.0892 53.5563 15.9728 52.4985 17.0509L57.7111 15.6542L58.4004 18.2265L48.96 20.7561L48.2571 18.1328Z" fill="url(#paint9_linear_2706_79)"/>
<path d="M66.0088 4.93066C67.6318 4.93066 68.9238 5.625 69.8848 7.01367C70.7168 8.2207 71.1328 9.74121 71.1328 11.5752C71.1328 13.667 70.5938 15.3398 69.5156 16.5938C68.584 17.6777 67.4209 18.2197 66.0264 18.2197C64.3857 18.2197 63.085 17.5195 62.124 16.1191C61.292 14.8945 60.876 13.3506 60.876 11.4873C60.876 9.43066 61.418 7.78418 62.502 6.54785C63.4395 5.46973 64.6084 4.93066 66.0088 4.93066ZM66.0088 7.66406C64.9365 7.66406 64.4004 8.98535 64.4004 11.6279C64.4004 14.2002 64.9365 15.4863 66.0088 15.4863C67.0752 15.4863 67.6084 14.1826 67.6084 11.5752C67.6084 8.96777 67.0752 7.66406 66.0088 7.66406Z" fill="url(#paint10_linear_2706_79)"/>
<path d="M74.2516 15.8576C76.5833 15.3056 78.3962 14.6297 79.6903 13.8299C80.8136 13.1239 81.4875 12.3521 81.712 11.5145C81.8348 11.0561 81.8079 10.6697 81.6313 10.3555C81.4618 10.0371 81.1592 9.81953 80.7234 9.70276C80.2819 9.58447 79.9012 9.61289 79.5813 9.78802C79.2614 9.96314 78.9457 10.3153 78.634 10.8445L75.8583 9.31818C77.0377 7.13499 78.9349 6.39372 81.5497 7.09435C83.0778 7.50381 84.1481 8.21825 84.7606 9.23769C85.2944 10.1208 85.4081 11.1339 85.1017 12.2772C84.6756 13.8676 83.5751 15.0771 81.8001 15.9057C81.0324 16.2581 79.9209 16.6366 78.4658 17.0414L83.6784 18.4381L82.9892 21.0104L73.5487 18.4809L74.2516 15.8576Z" fill="url(#paint11_linear_2706_79)"/>
<path d="M91.3907 22.9208L86.0778 19.8534L87.5192 17.3568L96.5309 13.5781L99.5299 15.3096L95.4781 22.3274L96.9243 23.1624L95.6455 25.3773L94.1993 24.5424L93.0392 26.5518L90.2305 24.9303L91.3907 22.9208ZM89.6934 18.9876L92.7989 20.7805L95.1543 16.7008L89.6934 18.9876Z" fill="url(#paint12_linear_2706_79)"/>
<path d="M111.9 36.0315L114.212 40.0352L111.593 41.5469L109.282 37.5432L111.9 36.0315Z" fill="url(#paint13_linear_2706_79)"/>
<path d="M123.02 64.2246V60.7705H125.867V71.2295H123.02V67.7666H113V64.2246H123.02Z" fill="url(#paint14_linear_2706_79)"/>
<path d="M110.918 78.6784C111.456 76.6692 112.525 75.2815 114.126 74.5153C115.512 73.8493 117.113 73.7597 118.93 74.2465C120.967 74.7924 122.423 75.868 123.297 77.4731C124.057 78.8717 124.212 80.4086 123.763 82.0839C123.314 83.7592 122.508 84.9779 121.346 85.74C120.728 86.1205 120.014 86.3963 119.204 86.5675L118.738 83.2124C119.404 83.1057 119.913 82.9025 120.266 82.6028C120.62 82.3032 120.873 81.8675 121.026 81.2959C121.26 80.4243 121.08 79.6815 120.486 79.0675C119.969 78.5286 119.15 78.1091 118.03 77.8088C116.751 77.4661 115.733 77.4603 114.977 77.7915C114.318 78.0761 113.884 78.6117 113.673 79.3984C113.512 79.9984 113.509 80.5192 113.664 80.961C113.824 81.4043 114.166 81.8386 114.689 82.2638L112.631 84.9517C111.894 84.3296 111.351 83.5927 111.003 82.7412C110.538 81.5551 110.51 80.2008 110.918 78.6784Z" fill="url(#paint15_linear_2706_79)"/>
<path d="M105.959 89.9842C106.999 88.1828 108.391 87.1192 110.135 86.7934C111.646 86.5086 113.216 86.8365 114.844 87.7769C116.671 88.8316 117.799 90.2473 118.228 92.024C118.6 93.5715 118.352 95.0963 117.485 96.5983C116.618 98.1003 115.524 99.0689 114.204 99.5042C113.509 99.7119 112.748 99.7935 111.921 99.7491L112.339 96.3879C113.01 96.457 113.554 96.3925 113.973 96.1945C114.392 95.9965 114.749 95.6413 115.045 95.1288C115.496 94.3473 115.515 93.5832 115.1 92.8364C114.74 92.1822 114.058 91.565 113.053 90.9849C111.906 90.3228 110.925 90.0539 110.109 90.1782C109.399 90.2826 108.841 90.6875 108.433 91.3928C108.123 91.9307 107.985 92.433 108.02 92.8997C108.06 93.3694 108.278 93.8773 108.673 94.4234L105.99 96.4871C105.439 95.6954 105.105 94.8432 104.989 93.9306C104.847 92.6647 105.17 91.3492 105.959 89.9842Z" fill="url(#paint16_linear_2706_79)"/>
<path d="M94.968 111.9L90.9643 114.212L89.4526 111.593L93.4563 109.282L94.968 111.9Z" fill="url(#paint17_linear_2706_79)"/>
<defs>
<linearGradient id="paint0_linear_2706_79" x1="65" y1="131" x2="65" y2="108" gradientUnits="userSpaceOnUse">
<stop stop-color="#B2B9C0"/>
<stop offset="1" stop-color="#4E5256"/>
</linearGradient>
<linearGradient id="paint1_linear_2706_79" x1="48.5471" y1="128.768" x2="54.5" y2="106.552" gradientUnits="userSpaceOnUse">
<stop stop-color="#B2B9C0"/>
<stop offset="1" stop-color="#4E5256"/>
</linearGradient>
<linearGradient id="paint2_linear_2706_79" x1="32.7497" y1="122.225" x2="44.2497" y2="102.306" gradientUnits="userSpaceOnUse">
<stop stop-color="#B2B9C0"/>
<stop offset="1" stop-color="#4E5256"/>
</linearGradient>
<linearGradient id="paint3_linear_2706_79" x1="19.1851" y1="111.815" x2="35.4485" y2="95.552" gradientUnits="userSpaceOnUse">
<stop stop-color="#B2B9C0"/>
<stop offset="1" stop-color="#4E5256"/>
</linearGradient>
<linearGradient id="paint4_linear_2706_79" x1="8.77539" y1="98.2498" x2="28.694" y2="86.7498" gradientUnits="userSpaceOnUse">
<stop stop-color="#B2B9C0"/>
<stop offset="1" stop-color="#4E5256"/>
</linearGradient>
<linearGradient id="paint5_linear_2706_79" x1="2.23183" y1="82.4528" x2="24.4481" y2="76.4999" gradientUnits="userSpaceOnUse">
<stop stop-color="#B2B9C0"/>
<stop offset="1" stop-color="#4E5256"/>
</linearGradient>
<linearGradient id="paint6_linear_2706_79" x1="0" y1="65" x2="23" y2="65" gradientUnits="userSpaceOnUse">
<stop stop-color="#B2B9C0"/>
<stop offset="1" stop-color="#4E5256"/>
</linearGradient>
<linearGradient id="paint7_linear_2706_79" x1="2.23163" y1="48.5472" x2="24.4479" y2="54.5001" gradientUnits="userSpaceOnUse">
<stop stop-color="#B2B9C0"/>
<stop offset="1" stop-color="#4E5256"/>
</linearGradient>
<linearGradient id="paint8_linear_2706_79" x1="19.1838" y1="19.1843" x2="35.4473" y2="35.4478" gradientUnits="userSpaceOnUse">
<stop stop-color="#B2B9C0"/>
<stop offset="1" stop-color="#4E5256"/>
</linearGradient>
<linearGradient id="paint9_linear_2706_79" x1="49.0299" y1="2.10236" x2="54.9828" y2="24.3187" gradientUnits="userSpaceOnUse">
<stop stop-color="#B2B9C0"/>
<stop offset="1" stop-color="#4E5256"/>
</linearGradient>
<linearGradient id="paint10_linear_2706_79" x1="66" y1="0" x2="66" y2="23" gradientUnits="userSpaceOnUse">
<stop stop-color="#B2B9C0"/>
<stop offset="1" stop-color="#4E5256"/>
</linearGradient>
<linearGradient id="paint11_linear_2706_79" x1="82.9362" y1="2.36126" x2="76.9833" y2="24.5776" gradientUnits="userSpaceOnUse">
<stop stop-color="#B2B9C0"/>
<stop offset="1" stop-color="#4E5256"/>
</linearGradient>
<linearGradient id="paint12_linear_2706_79" x1="98.6825" y1="9.02539" x2="87.1825" y2="28.944" gradientUnits="userSpaceOnUse">
<stop stop-color="#B2B9C0"/>
<stop offset="1" stop-color="#4E5256"/>
</linearGradient>
<linearGradient id="paint13_linear_2706_79" x1="122.225" y1="32.7499" x2="102.306" y2="44.2499" gradientUnits="userSpaceOnUse">
<stop stop-color="#B2B9C0"/>
<stop offset="1" stop-color="#4E5256"/>
</linearGradient>
<linearGradient id="paint14_linear_2706_79" x1="131" y1="66" x2="108" y2="66" gradientUnits="userSpaceOnUse">
<stop stop-color="#B2B9C0"/>
<stop offset="1" stop-color="#4E5256"/>
</linearGradient>
<linearGradient id="paint15_linear_2706_79" x1="128.639" y1="82.9356" x2="106.423" y2="76.9827" gradientUnits="userSpaceOnUse">
<stop stop-color="#B2B9C0"/>
<stop offset="1" stop-color="#4E5256"/>
</linearGradient>
<linearGradient id="paint16_linear_2706_79" x1="121.975" y1="98.683" x2="102.056" y2="87.183" gradientUnits="userSpaceOnUse">
<stop stop-color="#B2B9C0"/>
<stop offset="1" stop-color="#4E5256"/>
</linearGradient>
<linearGradient id="paint17_linear_2706_79" x1="98.2496" y1="122.225" x2="86.7496" y2="102.306" gradientUnits="userSpaceOnUse">
<stop stop-color="#B2B9C0"/>
<stop offset="1" stop-color="#4E5256"/>
</linearGradient>
</defs>
</svg>
